<?xml version="1.0" encoding="UTF-8" standalone="no"?>
<svg width="36px" height="10px" viewBox="0 0 36 10" version="1.1" xmlns="http://www.w3.org/2000/svg" xmlns:xlink="http://www.w3.org/1999/xlink" xmlns:sketch="http://www.bohemiancoding.com/sketch/ns">
    <!-- Generator: Sketch 3.3 (11970) - http://www.bohemiancoding.com/sketch -->
    <title>USTWO</title>
    <desc>Created with Sketch.</desc>
    <defs></defs>
    <g id="Page-1" stroke="none" stroke-width="1" fill="none" fill-rule="evenodd" sketch:type="MSPage">
        <g id="2.-Colours-are-AA-compliant-(swatches)" sketch:type="MSArtboardGroup" transform="translate(-103.000000, -29.000000)" fill="#FFFFFF">
            <g id="NAME" sketch:type="MSLayerGroup" transform="translate(75.000000, 28.000000)">
                <path d="M41.097,4.075 C40.859,3.918 40.506,3.729 40.416,3.695 C40.033,3.549 39.754,3.594 39.489,3.778 C39.337,3.873 39.185,4.035 39.005,4.245 L39.004,4.245 L34.885,8.786 L35.277,7.194 L36,5.033 L36,5 L36.058,5 L36,5.022 L36,5.038 C36,4.343 36.088,4.217 35.448,3.781 L35.396,3.74 C34.972,3.452 34.773,3.611 34.626,4.042 L34.286,4.767 L30.689,7.896 L31.734,4.932 C31.839,4.605 31.819,4.434 31.511,4.22 L30.791,3.73 C30.525,3.549 30.3,3.581 30.002,3.747 L29.12,4.252 C28.848,4.404 28.783,4.559 29.006,4.712 L29.007,4.712 L29.866,5.296 L28.439,9.458 C28.334,9.787 28.332,10.022 28.566,10.181 L29.379,10.734 L29.38,10.734 C29.71,10.959 29.816,10.86 30,10.688 L30,10.687 L33.474,7.515 L33,8.891 L33,8.893 C33,9.9 32.675,10.005 33.363,10.475 C33.451,10.536 33.809,10.612 33.901,10.638 C34.235,10.73 34.431,11 34.719,10 L34.712,10 L39.542,4.729 L39.509,9.102 L38.689,8.838 C38.421,8.719 38,8.641 38,9.073 L38,9.802 C38,10.126 38.267,10.508 38.627,10.657 L39.159,10.86 C39.539,11.023 39.739,11.069 40.123,10.859 L40.965,10.39 C41.332,10.182 41.424,9.838 41.447,9.536 L41.46,9 L41.461,9 L41.504,4.885 C41.505,4.317 41.36,4.249 41.097,4.075 Z M63.184,4.024 C62.982,3.788 62.827,3.705 62.488,3.705 C62.105,3.705 61.843,3.886 61.843,3.886 L61.18,4.283 C60.908,4.435 60.842,4.591 61.066,4.743 L61.926,5.328 C62.007,5.393 61.968,6.307 61.676,7.094 C61.373,7.911 61.162,8.288 60.685,8.848 C60.261,9.344 59.583,9.821 59.105,9.564 C58.594,9.289 58.614,8.482 59.216,7.085 C59.473,6.488 59.901,5.803 60.158,5.362 C60.415,4.921 60.282,4.537 59.862,4.217 L59.272,3.774 C58.863,3.507 58.311,3.534 57.847,3.994 L53.995,8.042 L54.645,5.937 L54.82,5.494 L54.82,5.493 C55.042,4.799 54.803,4.665 54.164,4.229 L54.097,4.183 C53.672,3.895 53.465,4.053 53.318,4.484 L53.31,4.502 L49.877,7.881 L51,5.014 L51,5.013 C51,4.45 50.531,4.063 49.995,3.699 C49.46,3.335 49.102,4 48.66,4 L48.614,4 L44.472,8.696 L46.062,3.751 C46.223,3.245 46.114,3.305 45.824,3.096 L45.196,3 L55.449,3 C55.682,3 55.71,2.641 55.589,2.401 L55.202,1.506 C55.068,1.243 54.923,0.999 54.646,1 L35.107,1 C34.874,1.001 34.846,1.144 34.967,1.384 L35.354,2.388 C35.487,2.651 35.633,3 35.91,3 L44.476,3 L42,8.884 L42,8.885 C42,9.892 41.957,9.801 42.645,10.271 C43.333,10.741 43.622,11 44.156,10 L44.213,10 L48.905,4.804 L47.434,9.322 C47.289,9.799 47.335,10.023 47.559,10.174 C47.806,10.343 47.967,10.474 48.262,10.675 C48.555,10.874 48.687,10.928 49.064,10.574 L52.751,7.072 L51.805,9.413 C51.614,10.011 51.695,10.089 52.234,10.456 L52.236,10.459 L52.573,10.688 C52.896,10.895 53.111,10.947 53.426,10.588 L58.2,5.449 C57.921,5.986 57.591,6.518 57.4,7.093 C56.955,8.428 56.808,10.514 58.602,10.882 C58.845,10.932 59.124,10.97 59.328,10.965 C61.889,10.875 63.275,8.293 63.568,6.244 C63.754,4.941 63.479,4.371 63.184,4.024 Z" id="USTWO" sketch:type="MSShapeGroup"></path>
            </g>
        </g>
    </g>
</svg>